<mxfile host="drawio-plugin" modified="2021-04-05T14:25:59.771Z" agent="5.0 (Windows NT 6.2; Win64; x64) AppleWebKit/537.36 (KHTML, like Gecko) Chrome/84.0.4147.105 Safari/537.36" etag="GFGwMKJvGZWn4tpYjy60" version="13.7.9" type="embed"><diagram id="29rGRaMjXw8uRga9VlSF" name="Swarm simulation"><mxGraphModel dx="744" dy="567" grid="1" gridSize="10" guides="1" tooltips="1" connect="1" arrows="1" fold="1" page="1" pageScale="1" pageWidth="583" pageHeight="413" math="0" shadow="0"><root><mxCell id="0"/><mxCell id="1" parent="0"/></root></mxGraphModel></diagram></mxfile>